<?xml version="1.0" standalone="no"?>
<!DOCTYPE svg PUBLIC "-//W3C//DTD SVG 20010904//EN"
 "http://www.w3.org/TR/2001/REC-SVG-20010904/DTD/svg10.dtd">
<svg version="1.0" xmlns="http://www.w3.org/2000/svg"
 width="370.000000pt" height="370.000000pt" viewBox="0 0 370.000000 370.000000"
 preserveAspectRatio="xMidYMid meet">
<metadata>
Created by potrace 1.11, written by Peter Selinger 2001-2013
</metadata>
<g transform="translate(0.000000,370.000000) scale(0.100000,-0.100000)"
fill="#000000" stroke="none">
<path d="M1689 3316 c-2 -2 -29 -6 -59 -9 -140 -16 -317 -62 -460 -122 -441
-184 -766 -520 -925 -957 -15 -40 -29 -84 -31 -98 -3 -14 -10 -41 -16 -60 -6
-19 -12 -42 -13 -50 -1 -8 -5 -31 -9 -50 -12 -69 -16 -96 -22 -162 l-6 -68
515 0 515 0 17 53 c9 28 34 84 55 124 135 253 341 385 599 386 184 0 325 -57
452 -183 95 -94 162 -202 203 -327 l18 -53 514 0 515 0 -5 48 c-12 100 -19
140 -42 239 -111 477 -423 870 -871 1097 -137 69 -304 130 -418 152 -22 5 -42
9 -45 9 -3 1 -25 5 -50 9 -25 5 -54 11 -65 13 -24 6 -361 14 -366 9z"/>
<path d="M1810 2059 c-191 -21 -332 -144 -379 -330 -52 -206 45 -416 234 -509
274 -134 595 58 618 370 20 266 -213 497 -473 469z"/>
<path d="M550 1489 c0 -20 69 -187 113 -275 102 -202 284 -431 435 -546 31
-24 59 -45 62 -49 5 -5 64 -42 105 -66 224 -128 505 -187 731 -154 133 20 142
22 223 46 358 107 652 359 816 700 53 110 99 241 111 315 l6 39 -314 0 -314 0
-22 -63 c-53 -146 -159 -294 -268 -372 -112 -80 -213 -114 -359 -120 -247 -10
-442 95 -585 313 -43 66 -110 206 -110 232 0 7 -104 10 -315 10 -189 -1 -315
-5 -315 -10z"/>
</g>
</svg>
