<?xml version="1.0" standalone="no"?>
<!DOCTYPE svg PUBLIC "-//W3C//DTD SVG 20010904//EN"
 "http://www.w3.org/TR/2001/REC-SVG-20010904/DTD/svg10.dtd">
<svg version="1.0" xmlns="http://www.w3.org/2000/svg"
 width="780.000000pt" height="780.000000pt" viewBox="0 0 780.000000 780.000000"
 preserveAspectRatio="xMidYMid meet">
<metadata>
Created by potrace 1.11, written by Peter Selinger 2001-2013
</metadata>
<g transform="translate(0.000000,780.000000) scale(0.100000,-0.100000)"
fill="#000000" stroke="none">
<path d="M3630 7194 c-19 -2 -86 -9 -148 -15 -62 -6 -123 -12 -135 -14 -34 -5
-120 -19 -137 -21 -222 -36 -668 -163 -780 -221 -14 -7 -30 -13 -36 -13 -5 0
-34 -11 -62 -25 -29 -14 -55 -25 -58 -25 -16 0 -334 -166 -439 -229 -446 -270
-851 -649 -1136 -1066 -364 -530 -574 -1147 -624 -1828 l-7 -87 1158 2 1158 3
22 70 c99 324 314 657 554 856 36 30 67 56 70 59 15 17 175 111 234 139 107
50 242 96 321 108 17 3 65 11 109 17 77 13 357 14 424 2 17 -3 44 -8 60 -10
64 -9 194 -47 274 -78 399 -159 742 -544 907 -1020 18 -51 38 -105 43 -121
l10 -27 1154 0 1154 0 -5 68 c-3 37 -8 78 -10 92 -2 14 -7 50 -10 80 -17 156
-77 436 -132 620 -31 105 -113 332 -125 344 -4 6 -8 16 -8 23 0 15 -162 346
-207 423 -45 78 -232 352 -288 424 -291 368 -679 700 -1103 944 -462 265
-1053 459 -1547 508 -33 3 -71 8 -85 10 -31 6 -521 12 -570 8z"/>
<path d="M3716 4364 c-384 -76 -671 -347 -773 -733 -23 -83 -26 -116 -26 -251
0 -136 3 -167 26 -254 96 -361 372 -632 735 -723 93 -24 341 -24 434 0 294 73
534 266 664 533 24 50 56 135 71 190 23 87 26 118 26 254 0 135 -3 168 -26
251 -103 389 -391 659 -780 734 -96 18 -258 18 -351 -1z"/>
<path d="M981 3023 c273 -776 713 -1405 1284 -1833 417 -313 857 -496 1335
-556 150 -18 470 -18 634 1 786 92 1511 502 1999 1130 296 381 480 787 601
1328 4 16 -35 17 -713 17 l-718 0 -33 -102 c-45 -136 -173 -390 -257 -507
-242 -338 -563 -545 -958 -618 -138 -26 -418 -23 -555 6 -295 62 -520 183
-730 391 -199 198 -357 458 -455 748 l-28 82 -718 0 -718 0 30 -87z"/>
</g>
</svg>
